{
  "source": "C:\\Users\\Peter\\Desktop\\stuff\\MIUN\\quantitative_research\\video_compression\\videos\\BVI-HD\\BVI-HD_CDVL_videos\\ORIG\\Hamster_1920x1080_60fps.mp4",
  "output": "C:\\Users\\Peter\\Desktop\\stuff\\MIUN\\quantitative_research\\video_compression\\compressed_videos\\BVI-HD\\vp9\\1.5\\Hamster_1920x1080_60fps_vp9.webm",
  "codec": "vp9",
  "ok": "Input #0, mov,mp4,m4a,3gp,3g2,mj2, from 'C:\\Users\\Peter\\Desktop\\stuff\\MIUN\\quantitative_research\\video_compression\\videos\\BVI-HD\\BVI-HD_CDVL_videos\\ORIG\\Hamster_1920x1080_60fps.mp4':\n  Metadata:\n    major_brand     : isom\n    minor_version   : 512\n    compatible_brands: isomiso2avc1mp41\n    encoder         : Lavf54.28.101\n  Duration: 00:00:05.00, start: 0.000000, bitrate: 208485 kb/s\n  Stream #0:0[0x1](und): Video: h264 (High 4:4:4 Predictive) (avc1 / 0x31637661), yuv420p(progressive), 1920x1080, 208481 kb/s, 60 fps, 60 tbr, 60 tbn (default)\n    Metadata:\n      handler_name    : VideoHandler\n      vendor_id       : [0][0][0][0]\n[out#0/webm @ 0000021a83209040] Codec AVOption b:a (set bitrate (in bits/s)) has not been used for any stream. The most likely reason is either wrong type (e.g. a video option with no video streams) or that it is a private option of some decoder which was not actually used for any stream.\nStream mapping:\n  Stream #0:0 -> #0:0 (h264 (native) -> vp9 (libvpx-vp9))\nPress [q] to stop, [?] for help\n[libvpx-vp9 @ 0000021a8320d1c0] v1.15.2-100-g40561f514\nOutput #0, webm, to 'C:\\Users\\Peter\\Desktop\\stuff\\MIUN\\quantitative_research\\video_compression\\compressed_videos\\BVI-HD\\vp9\\1.5\\Hamster_1920x1080_60fps_vp9.webm':\n  Metadata:\n    major_brand     : isom\n    minor_version   : 512\n    compatible_brands: isomiso2avc1mp41\n    encoder         : Lavf62.3.100\n  Stream #0:0(und): Video: vp9, yuv420p(tv, progressive), 1920x1080, q=2-31, 1500 kb/s, 60 fps, 1k tbn (default)\n    Metadata:\n      encoder         : Lavc62.11.100 libvpx-vp9\n      handler_name    : VideoHandler\n      vendor_id       : [0][0][0][0]\n    Side data:\n      cpb: bitrate max/min/avg: 0/0/0 buffer size: 1500000 vbv_delay: N/A\nframe=    3 fps=0.0 q=60.0 size=       1KiB time=00:00:00.05 bitrate= 101.3kbits/s speed=0.0961x elapsed=0:00:00.52    \nframe=   11 fps= 10 q=55.0 size=       1KiB time=00:00:00.18 bitrate=  27.6kbits/s speed=0.173x elapsed=0:00:01.05    \nframe=   18 fps= 11 q=54.0 size=       1KiB time=00:00:00.30 bitrate=  16.9kbits/s speed=0.188x elapsed=0:00:01.59    \nframe=   25 fps= 12 q=40.0 size=       1KiB time=00:00:00.41 bitrate=  12.2kbits/s speed=0.197x elapsed=0:00:02.11    \nframe=   32 fps= 12 q=56.0 size=       1KiB time=00:00:00.53 bitrate=   9.5kbits/s speed=0.202x elapsed=0:00:02.64    \nframe=   38 fps= 12 q=53.0 size=       1KiB time=00:00:00.63 bitrate=   8.0kbits/s speed=0.201x elapsed=0:00:03.15    \nframe=   45 fps= 12 q=52.0 size=       1KiB time=00:00:00.75 bitrate=   6.8kbits/s speed=0.204x elapsed=0:00:03.68    \nframe=   52 fps= 12 q=51.0 size=       1KiB time=00:00:00.86 bitrate=   5.8kbits/s speed=0.206x elapsed=0:00:04.20    \nframe=   58 fps= 12 q=50.0 size=       1KiB time=00:00:00.96 bitrate=   5.2kbits/s speed=0.204x elapsed=0:00:04.73    \nframe=   65 fps= 12 q=47.0 size=       1KiB time=00:00:01.08 bitrate=   4.7kbits/s speed=0.206x elapsed=0:00:05.25    \nframe=   71 fps= 12 q=52.0 size=       1KiB time=00:00:01.18 bitrate=   4.3kbits/s speed=0.204x elapsed=0:00:05.79    \nframe=   77 fps= 12 q=53.0 size=       1KiB time=00:00:01.28 bitrate=   3.9kbits/s speed=0.203x elapsed=0:00:06.31    \nframe=   83 fps= 12 q=56.0 size=       1KiB time=00:00:01.38 bitrate=   3.7kbits/s speed=0.203x elapsed=0:00:06.83    \nframe=   89 fps= 12 q=56.0 size=       1KiB time=00:00:01.48 bitrate=   3.4kbits/s speed=0.202x elapsed=0:00:07.35    \nframe=   95 fps= 12 q=57.0 size=       1KiB time=00:00:01.58 bitrate=   3.2kbits/s speed=0.201x elapsed=0:00:07.87    \nframe=  101 fps= 12 q=57.0 size=       1KiB time=00:00:01.68 bitrate=   3.0kbits/s speed=0.201x elapsed=0:00:08.39    \nframe=  107 fps= 12 q=57.0 size=       1KiB time=00:00:01.78 bitrate=   2.8kbits/s speed= 0.2x elapsed=0:00:08.90    \nframe=  113 fps= 12 q=57.0 size=       1KiB time=00:00:01.88 bitrate=   2.7kbits/s speed= 0.2x elapsed=0:00:09.43    \nframe=  119 fps= 12 q=42.0 size=       1KiB time=00:00:01.98 bitrate=   2.6kbits/s speed=0.199x elapsed=0:00:09.95    \nframe=  126 fps= 12 q=55.0 size=       1KiB time=00:00:02.10 bitrate=   2.4kbits/s speed= 0.2x elapsed=0:00:10.47    \nframe=  132 fps= 12 q=54.0 size=     256KiB time=00:00:02.20 bitrate= 953.3kbits/s speed= 0.2x elapsed=0:00:10.99    \nframe=  139 fps= 12 q=55.0 size=     256KiB time=00:00:02.31 bitrate= 905.2kbits/s speed=0.201x elapsed=0:00:11.51    \nframe=  146 fps= 12 q=54.0 size=     256KiB time=00:00:02.43 bitrate= 861.8kbits/s speed=0.202x elapsed=0:00:12.05    \nframe=  152 fps= 12 q=38.0 size=     256KiB time=00:00:02.53 bitrate= 827.8kbits/s speed=0.201x elapsed=0:00:12.57    \nframe=  159 fps= 12 q=52.0 size=     256KiB time=00:00:02.65 bitrate= 791.4kbits/s speed=0.202x elapsed=0:00:13.09    \nframe=  165 fps= 12 q=54.0 size=     256KiB time=00:00:02.75 bitrate= 762.6kbits/s speed=0.202x elapsed=0:00:13.61    \nframe=  172 fps= 12 q=55.0 size=     256KiB time=00:00:02.85 bitrate= 735.8kbits/s speed=0.201x elapsed=0:00:14.14    \nframe=  178 fps= 12 q=53.0 size=     256KiB time=00:00:02.96 bitrate= 706.9kbits/s speed=0.202x elapsed=0:00:14.68    \nframe=  184 fps= 12 q=54.0 size=     256KiB time=00:00:03.06 bitrate= 683.9kbits/s speed=0.202x elapsed=0:00:15.20    \nframe=  191 fps= 12 q=54.0 size=     256KiB time=00:00:03.18 bitrate= 658.8kbits/s speed=0.203x elapsed=0:00:15.71    \nframe=  197 fps= 12 q=54.0 size=     256KiB time=00:00:03.28 bitrate= 638.7kbits/s speed=0.202x elapsed=0:00:16.23    \nframe=  203 fps= 12 q=55.0 size=     256KiB time=00:00:03.38 bitrate= 619.8kbits/s speed=0.202x elapsed=0:00:16.77    \nframe=  209 fps= 12 q=58.0 size=     256KiB time=00:00:03.48 bitrate= 602.1kbits/s speed=0.202x elapsed=0:00:17.28    \nframe=  214 fps= 12 q=59.0 size=     256KiB time=00:00:03.56 bitrate= 588.0kbits/s speed= 0.2x elapsed=0:00:17.81    \nframe=  220 fps= 12 q=61.0 size=     256KiB time=00:00:03.66 bitrate= 572.0kbits/s speed= 0.2x elapsed=0:00:18.32    \nframe=  226 fps= 12 q=61.0 size=     256KiB time=00:00:03.76 bitrate= 556.8kbits/s speed= 0.2x elapsed=0:00:18.84    \nframe=  232 fps= 12 q=62.0 size=     256KiB time=00:00:03.86 bitrate= 542.4kbits/s speed= 0.2x elapsed=0:00:19.37    \nframe=  237 fps= 12 q=63.0 size=     256KiB time=00:00:03.95 bitrate= 530.9kbits/s speed=0.198x elapsed=0:00:19.90    \nframe=  243 fps= 12 q=62.0 size=     256KiB time=00:00:04.05 bitrate= 517.8kbits/s speed=0.198x elapsed=0:00:20.42    \nframe=  250 fps= 12 q=59.0 size=     256KiB time=00:00:04.16 bitrate= 503.3kbits/s speed=0.199x elapsed=0:00:20.95    \nframe=  256 fps= 12 q=58.0 size=     256KiB time=00:00:04.26 bitrate= 491.5kbits/s speed=0.199x elapsed=0:00:21.48    \nframe=  264 fps= 12 q=55.0 size=     512KiB time=00:00:04.40 bitrate= 953.3kbits/s speed= 0.2x elapsed=0:00:22.01    \nframe=  271 fps= 12 q=56.0 size=     512KiB time=00:00:04.51 bitrate= 928.6kbits/s speed=0.201x elapsed=0:00:22.52    \nframe=  276 fps= 12 q=54.0 size=     512KiB time=00:00:04.60 bitrate= 911.8kbits/s speed= 0.2x elapsed=0:00:23.04    \nframe=  276 fps= 12 q=54.0 size=     512KiB time=00:00:04.60 bitrate= 911.8kbits/s speed=0.195x elapsed=0:00:23.58    \nframe=  276 fps= 11 q=54.0 size=     512KiB time=00:00:04.60 bitrate= 911.8kbits/s speed=0.191x elapsed=0:00:24.12    \n[out#0/webm @ 0000021a83209040] video:876KiB audio:0KiB subtitle:0KiB other streams:0KiB global headers:0KiB muxing overhead: 0.315261%\nframe=  300 fps= 12 q=51.0 Lsize=     879KiB time=00:00:05.00 bitrate=1439.8kbits/s speed=0.204x elapsed=0:00:24.53    \n",
  "seconds": 24.740917444229126,
  "probe_out": {}
}